<svg width="235" height="69" viewBox="0 0 235 69" fill="none" xmlns="http://www.w3.org/2000/svg">
<g clip-path="url(#clip0_160_10889)">
<mask id="mask0_160_10889" style="mask-type:luminance" maskUnits="userSpaceOnUse" x="0" y="0" width="69" height="68">
<path d="M68.4921 0.199951H0.462891V67.9489H68.4921V0.199951Z" fill="white"/>
</mask>
<g mask="url(#mask0_160_10889)">
<path d="M68.4921 21.8005L63.1622 46.3481H25.5426L22.8777 58.6331H10.3378L13.0027 46.3481H0.462891L3.1278 34.0706H15.6677L18.3403 21.8005H5.80049L8.4654 9.51538H58.617L55.952 21.8005H30.8802L28.2153 34.0706H53.2872L55.952 21.8005H68.4921Z" fill="black"/>
</g>
<path d="M86.6278 18.2704H94.5755L94.0834 20.6717C95.3277 19.7593 96.668 19.0581 98.1148 18.5682C99.5616 18.0783 101.086 17.8286 102.687 17.8286C105.242 17.8286 107.49 18.5106 109.429 19.8745C111.367 21.2385 112.678 22.8521 113.373 24.7059C114.068 26.5597 114.415 28.2694 114.415 29.8351C114.415 30.786 114.328 31.7465 114.145 32.7262C113.595 35.4541 112.457 37.9707 110.721 40.2567C108.985 42.5523 106.882 44.3485 104.423 45.6644C101.953 46.9707 99.4264 47.6238 96.832 47.6238C95.2598 47.6238 93.8521 47.3741 92.6079 46.8651C91.3636 46.356 90.3024 45.626 89.4248 44.6847L86.6859 58.6602H78.7383L86.6278 18.2704ZM91.5564 36.5587C91.9904 37.7593 92.7425 38.7199 93.8037 39.4499C94.8644 40.1799 96.0896 40.5448 97.4783 40.5448C98.867 40.5448 100.285 40.1895 101.616 39.4787C102.947 38.7679 104.075 37.817 104.982 36.6164C105.898 35.4157 106.477 34.1286 106.738 32.7454C106.843 32.2364 106.902 31.7465 106.902 31.2759C106.902 30.4402 106.709 29.5373 106.323 28.5768C105.937 27.6163 105.223 26.7711 104.182 26.0698C103.14 25.3687 101.905 25.0037 100.478 25.0037C99.0506 25.0037 97.7292 25.3591 96.3981 26.0698C95.067 26.7806 93.9292 27.7316 93.0032 28.9322C92.0675 30.1328 91.4793 31.4103 91.2186 32.7551C91.1415 33.2257 91.1127 33.6867 91.1127 34.119C91.1127 34.9931 91.2572 35.8095 91.5466 36.5779L91.5564 36.5587Z" fill="black"/>
<path d="M116.877 32.7367C117.388 30.0088 118.517 27.4923 120.272 25.2062C122.028 22.9202 124.13 21.1048 126.571 19.7793C129.02 18.4538 131.538 17.791 134.132 17.791C135.742 17.791 137.16 18.0504 138.405 18.5498C139.649 19.0589 140.69 19.7889 141.53 20.7302L142.022 18.2713H149.969L144.326 47.2021H136.379L136.871 44.8008C135.627 45.7133 134.286 46.4145 132.839 46.9043C131.393 47.3942 129.869 47.6439 128.268 47.6439C125.712 47.6439 123.465 46.9619 121.526 45.598C119.587 44.2341 118.285 42.63 117.61 40.7954C116.935 38.9609 116.598 37.2607 116.598 35.6951C116.598 34.7538 116.684 33.7645 116.868 32.7463L116.877 32.7367ZM124.555 36.5596C124.988 37.7602 125.722 38.7111 126.744 39.4219C127.766 40.1327 129.011 40.4881 130.467 40.4881C131.923 40.4881 133.216 40.1327 134.546 39.4219C135.878 38.7111 137.025 37.7602 137.971 36.5596C138.916 35.3589 139.523 34.0814 139.784 32.7367C139.861 32.2661 139.89 31.7858 139.89 31.3151C139.89 30.4795 139.697 29.567 139.311 28.5872C138.925 27.6075 138.202 26.7527 137.151 26.0227C136.09 25.2927 134.865 24.9277 133.476 24.9277C132.087 24.9277 130.669 25.2831 129.338 25.9938C128.008 26.7046 126.889 27.6556 125.992 28.8562C125.094 30.0569 124.516 31.3439 124.265 32.7271C124.159 33.2361 124.101 33.726 124.101 34.1967C124.101 35.0323 124.246 35.8199 124.535 36.5404L124.555 36.5596Z" fill="black"/>
<path d="M154.638 18.2704H162.585L162.093 20.6717C163.337 19.7593 164.678 19.0581 166.125 18.5682C167.571 18.0783 169.095 17.8286 170.696 17.8286C173.252 17.8286 175.5 18.5106 177.438 19.8745C179.377 21.2385 180.688 22.8521 181.383 24.7059C182.077 26.5597 182.425 28.2694 182.425 29.8351C182.425 30.786 182.338 31.7465 182.155 32.7262C181.604 35.4541 180.467 37.9707 178.73 40.2567C176.994 42.5523 174.892 44.3485 172.432 45.6644C169.963 46.9707 167.436 47.6238 164.842 47.6238C163.27 47.6238 161.861 47.3741 160.617 46.8651C159.373 46.356 158.312 45.626 157.435 44.6847L154.695 58.6602H146.748L154.638 18.2704ZM159.566 36.5587C160 37.7593 160.752 38.7199 161.814 39.4499C162.874 40.1799 164.099 40.5448 165.488 40.5448C166.877 40.5448 168.295 40.1895 169.625 39.4787C170.957 38.7679 172.085 37.817 172.991 36.6164C173.908 35.4157 174.487 34.1286 174.747 32.7454C174.853 32.2364 174.911 31.7465 174.911 31.2759C174.911 30.4402 174.718 29.5373 174.332 28.5768C173.947 27.6163 173.233 26.7711 172.191 26.0698C171.149 25.3687 169.915 25.0037 168.488 25.0037C167.06 25.0037 165.738 25.3591 164.408 26.0698C163.077 26.7806 161.938 27.7316 161.013 28.9322C160.077 30.1328 159.489 31.4103 159.228 32.7551C159.151 33.2257 159.122 33.6867 159.122 34.119C159.122 34.9931 159.267 35.8095 159.556 36.5779L159.566 36.5587Z" fill="black"/>
<path d="M184.886 32.7367C185.397 30.0088 186.555 27.4923 188.368 25.2062C190.181 22.9202 192.361 21.1048 194.917 19.7793C197.473 18.4538 200.086 17.791 202.758 17.791C205.092 17.791 207.195 18.3097 209.056 19.3471C210.918 20.3844 212.384 21.806 213.445 23.6022C214.505 25.4079 215.036 27.4346 215.036 29.6822V30.393C215.036 32.1412 214.669 33.9085 213.936 35.6855H192.12C192.197 36.7804 192.506 37.693 193.055 38.4422C193.605 39.1914 194.328 39.7485 195.216 40.1039C196.113 40.4689 197.125 40.6514 198.254 40.6514C199.498 40.6514 200.771 40.44 202.092 40.027C203.414 39.614 204.581 38.9993 205.604 38.202L212.123 40.1711C210.551 42.4283 208.314 44.2341 205.41 45.598C202.507 46.9619 199.662 47.6439 196.884 47.6439C194.107 47.6439 191.763 46.9716 189.728 45.6268C187.693 44.2821 186.343 42.6781 185.648 40.8242C184.953 38.9704 184.606 37.2415 184.606 35.6374C184.606 34.6866 184.693 33.726 184.876 32.7463L184.886 32.7367ZM193.268 29.6822H207.349C207.243 28.8082 206.944 28.0013 206.471 27.2521C205.999 26.5029 205.324 25.9074 204.446 25.4464C203.568 24.9853 202.526 24.7644 201.321 24.7644C200.116 24.7644 198.987 24.9949 197.955 25.4464C196.923 25.8978 195.988 26.5029 195.187 27.2521C194.387 28.0013 193.74 28.8082 193.268 29.6822Z" fill="black"/>
<path d="M223.022 8.99194H230.969L223.514 47.2013H215.566L223.022 8.99194Z" fill="black"/>
</g>
<defs>
<clipPath id="clip0_160_10889">
<rect width="234.074" height="68.1481" fill="white" transform="translate(0.462891)"/>
</clipPath>
</defs>
</svg>
